<svg id="Layer_1" data-name="Layer 1" xmlns="http://www.w3.org/2000/svg" viewBox="0 0 1000 1000"><defs><style>.cls-1{fill:#b02860;}.cls-2{fill:#6ca1d6;}</style></defs><path class="cls-1" d="M512.46,737.33a26.1,26.1,0,0,1,2.1-2.48c11.25-8.37,21.83-22,34-23.57,11.73-1.54,24.78,10.27,37.79,14.53,23.62,7.74,47.36,15.63,71.63,20.67,12.82,2.67,27.2,1.15,40.3-1.42,29.4-5.76,48.1-31.06,49.35-63.19,1.52-39.38-11.22-75.12-28.35-109.48C673.79,481.18,606.81,407.88,528,344.55c-5-4.06-10.13-8.08-16.76-13.37,11.74-7.46,22.1-14.52,33-20.6,2.38-1.33,7.71-.38,10,1.53,104.89,88.35,193.88,189,244.42,318.95,12.3,31.62,19.4,64.53,17.13,99-3.38,51.41-36.29,83.87-87.93,86.3-35.77,1.68-69.55-7.08-102.55-19.54C585.48,781.73,548.32,761.48,512.46,737.33Z"/><path class="cls-2" d="M668.1,512.84c2.89,3.79,4.78,6.17,6.56,8.62,18.81,25.9,19.42,26.44-1.5,50.52-71.61,82.41-152.85,153.19-250.69,203.23-46.36,23.72-94.37,42.43-147.69,41.15-55.54-1.33-90.28-37.13-91.16-92.66-.73-46.38,13.71-89,33.14-129.93,13-27.5,28.88-53.66,44.66-82.61,10.15,13.62,19,23.87,25.7,35.4,2.24,3.88.28,11.73-2.16,16.54-14.75,29.08-27,59-31.46,91.47-1.64,12-2.15,24.73-.12,36.59,7.21,42,41.53,63.07,87.46,56.23,58.4-8.7,108.5-36,156-68.91C560,634.73,614.5,581.73,661.11,520.62,662.92,518.25,665.1,516.16,668.1,512.84Z"/><path class="cls-1" d="M484.79,666c-11.37,7.12-21.87,14.17-32.92,20.22-2.46,1.35-7.89.43-10.19-1.53C339.05,597.27,251.57,498.09,201.86,370.38,187.61,333.77,178.67,295.78,186,256c7.78-42.53,37.16-68.28,80.42-71.6,48.36-3.71,92.86,10.4,135.64,30.52,27.65,13,54.14,28.51,83.41,44.09-13.87,10.59-25.26,19.88-37.41,28-2.3,1.54-8-.66-11.47-2.37-33.21-16.24-67.07-30.36-104.62-32.45-51.87-2.88-81.78,25.57-79.46,77.36.77,17.26,4.5,34.81,9.62,51.37,18.83,60.91,54,112.6,93.91,161.38A740.62,740.62,0,0,0,475.57,658.41C478.32,660.55,481,662.84,484.79,666Z"/><path class="cls-2" d="M334.25,484c-2.53-2.71-3.63-3.54-4.29-4.64-23.93-39.57-24.84-26.21,4.25-59.5C397.56,347.31,469.68,285,553.71,237.28c42.5-24.14,86.74-44.71,135.72-51a193.3,193.3,0,0,1,58.72,1.12c40.45,7.41,65,38.53,67.62,79.61,2.49,38.56-5.16,75.45-20.55,110.14-15.07,33.95-33.61,66.36-50.71,99.39-1.14,2.21-3.06,4-5.64,7.3C729.66,472,720.66,461.39,713,449.9c-1.8-2.72.36-8.73,1.8-12.84,10.25-29.25,22.58-57.92,30.47-87.77,4-15,2.16-32.44-.89-48-5.61-28.69-28.54-46.32-57.92-48.46-45.64-3.32-86.37,12.61-125.33,33.34C475,332,404.56,396.56,344,472.44,341.06,476.09,338,479.59,334.25,484Z"/><path d="M500,0C223.86,0,0,223.86,0,500s223.86,500,500,500,500-223.86,500-500S776.14,0,500,0Zm0,970.78C240,970.78,29.22,760,29.22,500S240,29.22,500,29.22,970.78,240,970.78,500,760,970.78,500,970.78Z"/></svg>